<svg width="50" height="40" viewBox="0 0 50 40" fill="none" xmlns="http://www.w3.org/2000/svg">
<path d="M4.99678 21.3773C4.99678 20.9393 5.01706 20.5662 4.99678 20.1971C4.89908 19.3982 5.09084 18.5908 5.53727 17.9212C5.9837 17.2515 6.65525 16.764 7.43024 16.5469C7.51946 14.9449 8.24139 13.7728 9.83936 13.3388C11.5103 12.8805 12.7798 13.5659 13.6558 14.9976L14.8726 14.7948C15.1023 13.7542 15.7276 12.8437 16.6165 12.2559C17.327 11.7827 18.1686 11.5457 19.0216 11.5786C20.8426 11.6151 22.0959 12.6737 22.9638 14.9855C23.1098 14.8962 23.2436 14.8232 23.3694 14.7299C23.9827 14.2334 24.7572 13.9798 25.5454 14.0171C26.3336 14.0545 27.0806 14.3804 27.6442 14.9327C27.7202 15.0291 27.8282 15.0952 27.9487 15.119C28.0692 15.1428 28.1942 15.1228 28.3012 15.0625C29.0424 14.7719 29.8639 14.7604 30.613 15.0301C30.84 14.5805 31.1659 14.1881 31.5663 13.8826C31.9667 13.577 32.4312 13.3661 32.9248 13.2658C32.9879 13.2404 33.0555 13.228 33.1235 13.2293C33.9346 13.3875 34.397 12.9008 34.9242 12.4182C39.3829 8.4381 43.8442 4.46751 48.3082 0.506387C48.4304 0.353581 48.5988 0.244503 48.7882 0.195509C48.9776 0.146515 49.1778 0.160255 49.3587 0.234658C49.9387 0.494227 50.0117 1.1837 49.4925 1.65822C48.4624 2.59105 47.4119 3.50765 46.3736 4.43236L35.9422 13.6998L35.7151 13.9147L36.7777 15.5654L40.3103 12.6939C43.0141 10.5038 45.718 8.30967 48.4218 6.11145C48.5594 5.97058 48.7409 5.88092 48.9364 5.85732C49.1318 5.83372 49.3295 5.87759 49.4966 5.98166C49.6563 6.0696 49.7775 6.21382 49.8368 6.38625C49.896 6.55868 49.889 6.74697 49.817 6.91448C49.6955 7.15377 49.5189 7.36086 49.3019 7.5188C45.5165 10.6039 41.7312 13.6876 37.9458 16.77C37.8931 16.8105 37.8444 16.8592 37.7551 16.9363C38.4536 17.3729 38.9531 18.066 39.1463 18.8668C39.2801 19.678 39.272 20.4891 39.3328 21.3489H42.1719C43.1128 21.3489 43.3481 21.572 43.3237 22.521C43.2426 25.5183 42.107 28.114 40.2819 30.4501C38.7387 32.4181 36.8655 34.1033 34.7458 35.4305C34.6117 35.4973 34.501 35.6033 34.4286 35.7344C34.3562 35.8655 34.3253 36.0156 34.3402 36.1646C34.3686 36.8784 34.3402 37.5923 34.3402 38.302C34.3402 39.0118 34.0604 39.2754 33.3912 39.2754H10.829C10.1841 39.2754 9.89614 38.9874 9.89209 38.3466C9.89209 37.6004 9.89209 36.85 9.89209 36.1038C9.90362 35.9724 9.87585 35.8406 9.8123 35.7251C9.74875 35.6095 9.65229 35.5155 9.53518 35.4549C6.76915 33.6582 4.38438 31.4681 2.70935 28.5885C1.57046 26.7074 0.951784 24.5575 0.916687 22.3588C0.916687 21.6207 1.18436 21.353 1.92657 21.3489L4.99678 21.3773ZM11.5387 37.6409H32.6692V36.0186H29.4895V34.3963C30.6657 34.3963 31.8013 34.3963 32.9369 34.3963C33.1522 34.396 33.3635 34.3387 33.5493 34.23C35.8492 32.8297 37.8393 30.9749 39.3977 28.7791C39.929 28.0125 40.3589 27.1568 40.8984 26.2483H23.779V24.626H41.3729L41.6284 23.024H2.59578L2.86751 24.6463H12.3174V26.2686H3.40693C3.52455 26.5362 3.60159 26.735 3.69893 26.9256C5.32124 30.0932 7.79526 32.4252 10.7519 34.299C10.9468 34.3949 11.1639 34.4369 11.3806 34.4206C14.7577 34.4206 18.1375 34.4206 21.52 34.4206H22.0634V36.0713H11.5184L11.5387 37.6409ZM37.597 21.357C37.597 20.773 37.597 20.2458 37.597 19.7347C37.5857 19.3231 37.4209 18.9305 37.135 18.6341C36.8491 18.3377 36.4627 18.1589 36.0517 18.1327C35.1067 18.0638 34.8837 17.7596 35.1027 16.8227C35.1623 16.5922 35.1677 16.3511 35.1184 16.1181C35.0691 15.8852 34.9666 15.6669 34.8188 15.4803C34.6372 15.219 34.3785 15.0211 34.0789 14.9141C33.7793 14.8072 33.4537 14.7967 33.1478 14.8841C32.8139 14.9637 32.514 15.1471 32.291 15.408C32.0679 15.6689 31.9334 15.9938 31.9068 16.336C31.777 17.1472 31.1767 17.3784 30.5075 16.9119C30.1899 16.6489 29.7857 16.514 29.3738 16.5335C28.9619 16.553 28.5722 16.7256 28.2809 17.0174C27.7171 17.4757 27.2224 17.3743 26.8776 16.7213C26.2044 15.4519 24.939 15.3302 24.0143 16.4577C23.8945 16.6242 23.7201 16.7434 23.5215 16.7945C23.3228 16.8457 23.1126 16.8255 22.9273 16.7375C22.6948 16.6381 22.4529 16.562 22.2054 16.5104C21.5118 16.3968 21.3699 16.263 21.2969 15.533C21.2732 14.8876 20.9941 14.278 20.521 13.8384C20.0479 13.3988 19.4196 13.1651 18.7742 13.1887C18.1288 13.2124 17.5193 13.4915 17.0796 13.9646C16.64 14.4377 16.4063 15.066 16.43 15.7114C16.43 16.4617 15.996 16.7903 15.266 16.5834C15.0231 16.507 14.7654 16.4903 14.5148 16.5348C14.2641 16.5793 14.0279 16.6836 13.8262 16.8389C13.0393 17.3986 12.5243 17.1958 12.3093 16.2427C12.2751 16.0286 12.1984 15.8235 12.0835 15.6396C11.9687 15.4557 11.8182 15.2966 11.6409 15.1719C11.4636 15.0471 11.263 14.9591 11.0511 14.9132C10.8392 14.8672 10.6203 14.8642 10.4072 14.9043C10.1906 14.9513 9.986 15.0422 9.80592 15.1713C9.62584 15.3004 9.47412 15.4651 9.36011 15.6551C9.24611 15.8451 9.17225 16.0564 9.14307 16.2761C9.11388 16.4957 9.13001 16.719 9.19045 16.9322C9.36485 17.7069 9.07688 18.08 8.27384 18.1165C7.9218 18.1072 7.57751 18.2207 7.3 18.4376C7.0225 18.6544 6.82908 18.961 6.75293 19.3048C6.66679 19.9842 6.62344 20.6682 6.62314 21.353L37.597 21.357Z" fill="#FE8D0D"/>
<path d="M21.6324 8.44746L20.8619 9.78991C19.0854 9.21399 18.3067 6.67509 19.3896 5.02439C19.5397 4.79727 19.7262 4.59854 19.8966 4.38764C20.6307 3.4832 20.6388 2.57876 19.8966 1.61755L20.8862 0.400818C21.4623 0.851688 21.8692 1.48404 22.0407 2.19524C22.2123 2.90644 22.1384 3.65474 21.8312 4.31868C21.657 4.74128 21.4219 5.13616 21.1336 5.4908C20.2413 6.58992 20.3224 7.41729 21.4337 8.3055L21.6324 8.44746Z" fill="#FE8D0D"/>
<path d="M15.955 11.4566C14.3084 10.6008 13.039 8.27684 14.8438 6.20435C15.3751 5.59193 15.732 4.91461 15.4846 4.07507C15.3587 3.77236 15.2053 3.48184 15.0263 3.20715L15.9875 1.99042C16.5672 2.45163 16.974 3.09523 17.1419 3.81675C17.3097 4.53826 17.2288 5.29532 16.9122 5.96506C16.7376 6.36897 16.5083 6.74699 16.2309 7.08851C15.3508 8.16734 15.4197 8.99471 16.4945 9.87076L16.7378 10.0533L15.955 11.4566Z" fill="#FE8D0D"/>
<path d="M24.7643 3.25628L25.7539 2.03955C26.2874 2.43959 26.6791 2.99974 26.8718 3.63819C27.0644 4.27664 27.0479 4.95995 26.8246 5.58834C26.6426 6.13277 26.3682 6.64178 26.0134 7.09302C25.1171 8.23675 25.178 9.03168 26.3298 9.93206L26.5123 10.0821L25.7336 11.4408C25.2716 11.2387 24.862 10.9333 24.5365 10.5481C24.211 10.1629 23.9782 9.70823 23.856 9.21896C23.7338 8.72969 23.7254 8.2189 23.8315 7.7259C23.9377 7.23289 24.1555 6.7708 24.4682 6.37516C24.66 6.16096 24.8362 5.93325 24.9954 5.69379C25.4902 4.84209 25.5024 4.03093 24.7643 3.25628Z" fill="#FE8D0D"/>
<path d="M15.5753 26.24H14.0098V24.6785H15.5753V26.24Z" fill="#FE8D0D"/>
<path d="M17.2609 24.6584H18.8183V26.2402H17.2609V24.6584Z" fill="#FE8D0D"/>
<path d="M20.5231 24.6584H22.0846V26.224H20.5231V24.6584Z" fill="#FE8D0D"/>
<path d="M19.6534 17.3458V18.8911H18.0717V17.3458H19.6534Z" fill="#FE8D0D"/>
<path d="M13.1389 18.1451V19.7107H11.5693V18.1451H13.1389Z" fill="#FE8D0D"/>
<path d="M25.3495 18.1572V19.7187H23.7881V18.1572H25.3495Z" fill="#FE8D0D"/>
<path d="M31.9229 18.141H33.4843V19.7146H31.9229V18.141Z" fill="#FE8D0D"/>
</svg>
