<svg width="36" height="44" viewBox="0 0 36 44" fill="none" xmlns="http://www.w3.org/2000/svg">
<path d="M17.5386 23.7368C20.9634 23.7368 23.7397 20.9605 23.7397 17.5357C23.7397 14.111 20.9634 11.3347 17.5386 11.3347C14.1139 11.3347 11.3376 14.111 11.3376 17.5357C11.3376 20.9605 14.1139 23.7368 17.5386 23.7368Z" stroke="#FE8D0D" stroke-width="2" stroke-linecap="round" stroke-linejoin="round"/>
<path d="M17.5362 1C13.1505 1 8.94448 2.7422 5.84334 5.84334C2.7422 8.94448 1 13.1505 1 17.5362C1 21.447 1.83094 24.006 4.10054 26.8378L17.5362 42.3405L30.9718 26.8378C33.2414 24.006 34.0724 21.447 34.0724 17.5362C34.0724 13.1505 32.3302 8.94448 29.229 5.84334C26.1279 2.7422 21.9219 1 17.5362 1V1Z" stroke="#FE8D0D" stroke-width="2" stroke-linecap="round" stroke-linejoin="round"/>
</svg>
