<svg width="48" height="40" viewBox="0 0 48 40" fill="none" xmlns="http://www.w3.org/2000/svg">
<path d="M32.2473 1.8429H1.6071V27.9438H32.2473V1.8429Z" stroke="#FE8D0D" stroke-width="2" stroke-linecap="round" stroke-linejoin="round"/>
<path d="M32.2472 12.0562H40.6773L46.9999 18.014V27.9437H32.2472V12.0562Z" stroke="#FE8D0D" stroke-width="2" stroke-linecap="round" stroke-linejoin="round"/>
<path d="M37.3539 38.1571C40.1743 38.1571 42.4606 35.8708 42.4606 33.0504C42.4606 30.2301 40.1743 27.9437 37.3539 27.9437C34.5336 27.9437 32.2472 30.2301 32.2472 33.0504C32.2472 35.8708 34.5336 38.1571 37.3539 38.1571Z" stroke="#FE8D0D" stroke-width="2" stroke-linecap="round" stroke-linejoin="round"/>
<path d="M11.253 38.1571C14.0734 38.1571 16.3597 35.8708 16.3597 33.0504C16.3597 30.2301 14.0734 27.9437 11.253 27.9437C8.43266 27.9437 6.14632 30.2301 6.14632 33.0504C6.14632 35.8708 8.43266 38.1571 11.253 38.1571Z" stroke="#FE8D0D" stroke-width="2" stroke-linecap="round" stroke-linejoin="round"/>
</svg>
