<svg width="774" height="177" viewBox="0 0 774 177" fill="none" xmlns="http://www.w3.org/2000/svg">
<circle cx="69" cy="107" r="69" fill="#FE550D"/>
<path d="M44 119.518L44 107.184L126 107.184L126 119.518L44 119.518Z" fill="#FECD6D"/>
<path d="M69.2308 134.094L57.6667 134.094L57.6667 50L69.2308 50L69.2308 134.094Z" fill="#FECD6D"/>
<path d="M125.181 116.488C126.651 108.197 126.138 99.7061 123.678 91.6203C121.219 83.5345 116.873 76.0521 110.95 69.7055C105.027 63.3589 97.6721 58.304 89.4094 54.9005C81.1466 51.497 72.1787 49.8286 63.1437 50.0139L63.4168 61.5273C70.6323 61.3793 77.7942 62.7118 84.3929 65.4298C90.9917 68.1479 96.8651 72.1848 101.595 77.2533C106.325 82.3217 109.796 88.2973 111.76 94.7547C113.725 101.212 114.134 107.993 112.96 114.614L125.181 116.488Z" fill="#FECD6D"/>
<path d="M156.23 45.212C170.846 44.204 183.698 43.7 194.786 43.7C226.034 43.7 241.658 54.725 241.658 76.775C241.658 86.981 239.012 95.927 233.72 103.613C230.948 107.771 226.664 111.11 220.868 113.63C215.072 116.024 208.079 117.221 199.889 117.221H171.917V176H156.23V45.212ZM194.975 45.59C187.667 45.59 179.981 46.031 171.917 46.913V115.331H199.889C217.655 114.575 226.538 101.849 226.538 77.153C226.538 67.073 223.892 59.324 218.6 53.906C213.308 48.362 205.433 45.59 194.975 45.59ZM276.151 176C270.985 176 267.016 174.866 264.244 172.598C261.598 170.33 260.212 168.062 260.086 165.794L259.897 162.581V81.5H273.127V162.581C273.127 166.235 273.82 169.07 275.206 171.086C276.718 172.976 278.167 173.984 279.553 174.11L281.821 174.488H287.68V176H276.151ZM261.031 60.332C259.519 58.82 258.763 56.93 258.763 54.662C258.763 52.394 259.519 50.504 261.031 48.992C262.543 47.354 264.433 46.535 266.701 46.535C268.969 46.535 270.859 47.354 272.371 48.992C274.009 50.504 274.828 52.394 274.828 54.662C274.828 56.93 274.009 58.82 272.371 60.332C270.859 61.844 268.969 62.6 266.701 62.6C264.433 62.6 262.543 61.844 261.031 60.332ZM306.611 83.012V81.5H372.194V83.012L315.116 174.488H360.287C368.981 174.488 374.21 171.968 375.974 166.928L377.108 167.495C377.108 167.999 376.667 168.881 375.785 170.141C374.903 171.275 373.895 172.22 372.761 172.976C369.737 174.992 365.579 176 360.287 176H301.886V174.488L358.964 83.012H306.611ZM395.02 83.012V81.5H460.603V83.012L403.525 174.488H448.696C457.39 174.488 462.619 171.968 464.383 166.928L465.517 167.495C465.517 167.999 465.076 168.881 464.194 170.141C463.312 171.275 462.304 172.22 461.17 172.976C458.146 174.992 453.988 176 448.696 176H390.295V174.488L447.373 83.012H395.02ZM488.809 129.884C488.809 145.508 491.518 156.974 496.936 164.282C502.48 171.59 509.725 175.244 518.671 175.244C531.271 175.244 542.485 173.354 552.313 169.574L552.88 170.897C542.8 174.803 531.397 176.756 518.671 176.756C506.071 176.756 495.802 172.976 487.864 165.416C479.926 157.856 475.957 146.201 475.957 130.451C475.957 114.701 480.115 102.479 488.431 93.785C496.747 85.091 507.331 80.744 520.183 80.744C530.515 80.744 539.209 83.831 546.265 90.005C553.321 96.179 556.849 105.314 556.849 117.41C556.849 118.04 556.849 118.67 556.849 119.3H489.376C488.998 122.702 488.809 126.23 488.809 129.884ZM543.997 117.788C543.871 105.692 541.54 96.746 537.004 90.95C532.468 85.154 526.609 82.256 519.427 82.256C512.245 82.256 505.819 85.406 500.149 91.706C494.605 98.006 491.077 106.7 489.565 117.788H543.997ZM600.65 89.627V85.658C594.98 87.926 589.814 92.525 585.152 99.455C580.49 106.259 578.033 112.685 577.781 118.733V176H564.551V81.5H577.781V111.551C579.797 104.243 583.64 97.376 589.31 90.95C594.98 84.398 601.406 80.996 608.588 80.744H609.344C611.864 80.744 613.943 81.626 615.581 83.39C617.345 85.028 618.227 87.107 618.227 89.627C618.227 92.147 617.345 94.226 615.581 95.864C613.943 97.502 611.864 98.321 609.344 98.321C606.824 98.321 604.745 97.502 603.107 95.864C601.469 94.226 600.65 92.147 600.65 89.627ZM651.751 176C646.585 176 642.616 174.866 639.844 172.598C637.198 170.33 635.812 168.062 635.686 165.794L635.497 162.581V81.5H648.727V162.581C648.727 166.235 649.42 169.07 650.806 171.086C652.318 172.976 653.767 173.984 655.153 174.11L657.421 174.488H663.28V176H651.751ZM636.631 60.332C635.119 58.82 634.363 56.93 634.363 54.662C634.363 52.394 635.119 50.504 636.631 48.992C638.143 47.354 640.033 46.535 642.301 46.535C644.569 46.535 646.459 47.354 647.971 48.992C649.609 50.504 650.428 52.394 650.428 54.662C650.428 56.93 649.609 58.82 647.971 60.332C646.459 61.844 644.569 62.6 642.301 62.6C640.033 62.6 638.143 61.844 636.631 60.332ZM752.797 176C744.229 176 738.37 174.362 735.22 171.086C732.322 168.314 730.873 165.92 730.873 163.904V159.935C724.699 171.149 714.808 176.756 701.2 176.756C685.324 176.756 676.315 169.574 674.173 155.21C673.921 153.698 673.795 152.186 673.795 150.674C673.795 149.036 674.047 147.272 674.551 145.382C675.055 143.492 676.504 141.413 678.898 139.145C683.686 134.609 694.207 131.837 710.461 130.829C714.493 130.451 718.21 130.262 721.612 130.262C725.014 130.262 728.101 130.388 730.873 130.64V99.266C730.621 99.14 730.621 98.573 730.873 97.565C731.125 96.431 730.873 95.045 730.117 93.407C729.487 91.643 728.605 89.942 727.471 88.304C726.337 86.666 724.321 85.28 721.423 84.146C718.525 82.886 714.745 82.256 710.083 82.256C705.421 82.256 699.94 83.138 693.64 84.902C687.466 86.54 682.93 88.178 680.032 89.816L679.276 88.493C690.49 83.327 701.893 80.744 713.485 80.744C726.463 80.744 735.031 83.075 739.189 87.737C742.465 91.391 744.103 95.234 744.103 99.266V162.581C744.103 166.235 744.796 169.07 746.182 171.086C747.694 172.976 749.206 173.984 750.718 174.11L752.797 174.488H758.656V176H752.797ZM704.224 175.244C710.902 175.244 716.887 172.976 722.179 168.44C727.597 163.778 730.495 159.305 730.873 155.021V132.152C727.471 131.9 724.006 131.774 720.478 131.774C717.076 131.774 713.674 131.963 710.272 132.341C700.696 133.475 694.459 135.617 691.561 138.767C688.663 141.917 687.214 146.264 687.214 151.808C687.214 152.816 687.277 153.95 687.403 155.21C688.537 168.566 694.144 175.244 704.224 175.244Z" fill="#FE8D0D"/>
</svg>
