<svg width="138" height="138" viewBox="0 0 138 138" fill="none" xmlns="http://www.w3.org/2000/svg">
<circle cx="69" cy="69" r="69" fill="#FE550D"/>
<path d="M69.2308 96.0944L57.6667 96.0944L57.6667 12L69.2308 12L69.2308 96.0944Z" fill="#FECD6D"/>
<path d="M126.094 66L126.094 77.5641L42.0001 77.5641L42.0001 66L126.094 66Z" fill="#FECD6D"/>
<path d="M125.671 75.0917C126.605 66.7336 125.546 58.287 122.57 50.3527C119.593 42.4184 114.773 35.1914 108.452 29.186C102.131 23.1806 94.4641 18.5444 85.997 15.6072C77.5298 12.67 68.4705 11.5039 59.4637 12.1921L60.4779 23.6696C67.6709 23.1201 74.9058 24.0513 81.6677 26.397C88.4297 28.7427 94.5526 32.4452 99.6007 37.2412C104.649 42.0372 108.498 47.8087 110.875 54.1451C113.252 60.4815 114.097 67.2271 113.352 73.902L125.671 75.0917Z" fill="#FECD6D"/>
</svg>
